<?xml version="1.0" encoding="UTF-8" standalone="no"?>
<!-- Generator: Adobe Illustrator 24.0.3, SVG Export Plug-In . SVG Version: 6.00 Build 0)  -->

<svg
   version="1.1"
   id="Layer_1"
   x="0px"
   y="0px"
   viewBox="0 0 200 200"
   style="enable-background:new 0 0 200 200;"
   xml:space="preserve"
   sodipodi:docname="gcfpeel_logo-whitebord.svg"
   inkscape:version="1.3 (0e150ed6c4, 2023-07-21)"
   xmlns:inkscape="http://www.inkscape.org/namespaces/inkscape"
   xmlns:sodipodi="http://sodipodi.sourceforge.net/DTD/sodipodi-0.dtd"
   xmlns="http://www.w3.org/2000/svg"
   xmlns:svg="http://www.w3.org/2000/svg"><defs
   id="defs10" /><sodipodi:namedview
   id="namedview10"
   pagecolor="#ffffff"
   bordercolor="#666666"
   borderopacity="1.0"
   inkscape:showpageshadow="2"
   inkscape:pageopacity="0.0"
   inkscape:pagecheckerboard="0"
   inkscape:deskcolor="#d1d1d1"
   showgrid="false"
   inkscape:zoom="2.3336784"
   inkscape:cx="88.27266"
   inkscape:cy="100.48514"
   inkscape:window-width="1125"
   inkscape:window-height="925"
   inkscape:window-x="64"
   inkscape:window-y="106"
   inkscape:window-maximized="0"
   inkscape:current-layer="Layer_1" />&#10;<style
   type="text/css"
   id="style1">&#10;	.st0{fill:#5CBB4E;}&#10;	.st1{fill:#FFFFFF;}&#10;	.st2{fill:#027944;}&#10;	.st3{fill:#F10703;}&#10;</style>&#10;<path
   id="path10"
   class="st0"
   d="M 78.099609 4.5 L 78.099609 5 L 78.099609 36.800781 L 48.5 36.800781 L 48 36.800781 L 48 37.300781 L 48 44 L 48 44.5 L 48.5 44.5 L 78.099609 44.5 L 78.099609 98.0625 C 73.453455 97.03684 67.871131 96.099609 62.900391 96.099609 C 61.800392 96.099609 60.699218 96.200781 59.699219 96.300781 C 49.699229 96.300781 40.400384 100.29962 33.400391 107.59961 C 26.100398 115.0996 22.099609 125.5004 22.099609 136.90039 C 22.099609 148.30038 26.399618 157.99923 34.599609 164.69922 C 40.14474 169.29584 47.345195 172.34146 55.414062 173.65625 C 57.509602 178.13576 60.546365 182.07037 64.5 185.30078 C 72.099992 191.60077 82.799621 195 94.599609 195 C 100.8996 195 107.99962 193.00039 114.59961 189.40039 L 114.90039 189.30078 L 114.90039 189 C 114.90039 189 114.80078 184.99961 114.80078 182.59961 L 114.69922 180.5 L 113.80078 182.40039 C 113.80078 182.50039 109.99998 189.69922 94 189.69922 C 83.80001 189.69922 76.000776 185.70038 70.800781 177.90039 C 70.021024 176.70949 69.348938 175.48977 68.753906 174.26367 C 80.603086 173.50965 85.741305 169.52727 88.900391 167 C 89.30039 166.6 89.69961 166.29961 90.099609 166.09961 L 90.300781 166 L 90.300781 165.69922 L 90.300781 141.09961 L 90.300781 140.59961 L 89.800781 140.59961 L 78.699219 140.59961 L 78.199219 140.59961 L 78.199219 141.09961 L 78.199219 165.5 C 77.015238 166.77506 74.981368 168.7071 66.699219 169.04297 C 64.96772 163.47348 64.699219 158.39383 64.699219 155.90039 C 64.699219 144.94195 66.681559 133.79543 78.099609 127.92383 L 78.099609 134.40039 L 78.099609 134.90039 L 78.599609 134.90039 L 89.699219 134.90039 L 90.199219 134.90039 L 90.199219 134.40039 L 90.199219 124.3418 C 92.967502 123.94977 96.013026 123.72136 99.400391 123.69922 L 99.400391 158.80078 L 99.400391 159.30078 L 99.900391 159.30078 L 112.30078 159.30078 L 112.80078 159.30078 L 112.80078 158.80078 L 112.80078 123.59961 L 135.69922 123.59961 L 136.19922 123.59961 L 136.19922 123.09961 L 136.19922 118.5 L 136.19922 118 L 135.69922 118 L 112.69922 118 L 112.69922 90.099609 L 143.19922 90.099609 L 143.69922 90.099609 L 143.69922 89.599609 L 143.69922 85.400391 L 143.69922 84.900391 L 143.59961 84.900391 L 143.09961 84.900391 L 99.900391 84.900391 L 99.400391 84.900391 L 99.400391 85.400391 L 99.400391 118.5 L 90.199219 118.5 L 90.199219 44.599609 L 119.80078 44.599609 L 120.30078 44.599609 L 120.30078 44 L 120.30078 37.300781 L 120.30078 36.800781 L 119.80078 36.800781 L 90.300781 36.800781 L 90.300781 5 L 90.300781 4.5 L 89.800781 4.5 L 78.599609 4.5 L 78.099609 4.5 z M 62.300781 100.19922 C 68.628773 100.19922 73.637412 101.0506 78.099609 103.0293 L 78.099609 119.74805 C 64.354585 123.88204 52 138.03473 52 157.5 C 52 160.90748 52.392727 164.15951 53.150391 167.22852 C 52.991204 167.16827 52.83313 167.10611 52.675781 167.04297 C 43.669134 163.31798 38.792079 155.30582 36.472656 147.35156 C 35.031046 142.21718 34.800781 137.6303 34.800781 135.30078 C 34.800781 127.40079 37.100004 118.99921 41 112.69922 C 44.499997 106.99922 51.000793 100.19922 62.300781 100.19922 z M 153.5 130.19922 L 153 131.09961 L 149 138.90039 C 148.8 139.30039 148.60039 139.40039 148.40039 139.40039 C 148.30039 139.40039 148.10039 139.29922 147.90039 139.19922 L 144.30078 137.09961 C 144.20078 136.99961 144.1 137.00039 144 136.90039 L 143.40039 136.59961 L 143.5 137.19922 L 143.5 137.5 L 145.40039 147.30078 L 146 150.59961 C 146 150.79961 146.00039 150.99961 145.90039 151.09961 C 145.80039 151.19961 145.70039 151.30078 145.40039 151.30078 C 145.20039 151.30078 145.00078 151.2 144.80078 151 L 139.80078 145.59961 C 139.70078 145.59961 139.69961 145.50039 139.59961 145.40039 L 139.19922 144.90039 L 138.59961 146.40039 C 138.29961 147.20039 137.99922 147.8 137.69922 148.5 C 137.49922 148.9 137.29961 149 137.09961 149 L 136.80078 149 L 130.69922 147.69922 C 130.49922 147.69922 130.39922 147.59961 130.19922 147.59961 L 129.5 147.5 L 129.80078 148.5 L 131.90039 155.09961 C 132.10039 155.49961 132 155.8 131.5 156 C 131.3 156.1 128.59961 157.40039 128.59961 157.40039 L 129 157.69922 C 129.1 157.69922 129.19922 157.80078 129.19922 157.80078 L 140.80078 167.19922 C 141.50078 167.69922 141.49922 167.7 141.19922 168.5 L 139.69922 172.69922 L 142.19922 172.30078 C 142.19922 172.30078 149.19922 170.99922 151.19922 170.69922 L 151.40039 170.69922 C 151.70039 170.69922 151.89961 170.8 152.09961 171 C 152.29961 171.2 152.40039 171.60039 152.40039 171.90039 L 152.09961 176.69922 L 151.69922 183.30078 L 151.69922 183.40039 L 155.30078 183.40039 L 155.19922 182.40039 C 155.19922 181.90039 155.09961 181.40039 155.09961 180.90039 L 155 179.90039 C 154.9 177.20039 154.69961 174.60039 154.59961 171.90039 C 154.59961 171.60039 154.70039 171.29961 154.90039 171.09961 C 155.00039 170.89961 155.29961 170.80078 155.59961 170.80078 L 155.80078 170.80078 C 157.70078 171.10078 159.69961 171.50078 161.59961 171.80078 L 164.40039 172.30078 L 167.30078 172.80078 L 165.80078 168.59961 C 165.50078 167.89961 165.49961 167.90039 166.09961 167.40039 L 177.69922 158 L 177.90039 157.80078 L 178.30078 157.40039 L 175.5 156.09961 C 174.9 155.79961 174.8 155.7 175 155 L 177 148.69922 C 177.1 148.49922 177.09922 148.29961 177.19922 148.09961 L 177.40039 147.40039 L 177 147.5 C 177 147.5 176.69961 147.59961 176.59961 147.59961 L 170.09961 149 L 169.80078 149 C 169.60078 149 169.39922 148.9 169.19922 148.5 C 168.99922 148.1 168.79961 147.59922 168.59961 147.19922 L 168.30078 146.40039 L 167.69922 145.09961 L 167.30078 145.59961 L 162.40039 150.90039 L 161.90039 151.40039 C 161.80039 151.50039 161.6 151.59961 161.5 151.59961 C 161.4 151.59961 161.40078 151.6 161.30078 151.5 C 161.20078 151.4 161.1 151.10039 161 150.90039 L 161 150.80078 L 161 150.69922 L 161 150.59961 L 162.90039 140.90039 L 163.69922 136.69922 L 163.19922 136.90039 C 163.19922 136.90039 162.79922 137.09961 162.69922 137.09961 L 159.30078 139.09961 C 159.00078 139.29961 158.79961 139.40039 158.59961 139.40039 C 158.39961 139.40039 158.20039 139.29922 157.90039 138.69922 L 154 131.09961 C 153.9 130.99961 153.5 130.19922 153.5 130.19922 z M 55.808594 173.72266 C 55.811251 173.72307 55.813749 173.7242 55.816406 173.72461 C 55.860129 173.81631 55.902768 173.9088 55.947266 174 C 55.902143 173.90674 55.852918 173.8165 55.808594 173.72266 z M 56.308594 174.72461 C 56.498418 175.09109 56.693979 175.45447 56.896484 175.8125 C 56.694855 175.45443 56.497731 175.09222 56.308594 174.72461 z M 57.130859 176.2207 C 57.377468 176.64274 57.630312 177.05895 57.894531 177.46875 C 57.631237 177.05978 57.376921 176.64335 57.130859 176.2207 z M 58.0625 177.72461 C 58.349108 178.16029 58.644789 178.59039 58.951172 179.01172 C 58.644834 178.59088 58.349524 178.16139 58.0625 177.72461 z M 59.091797 179.20312 C 59.395688 179.61483 59.708642 180.01849 60.03125 180.41602 C 59.708714 180.01968 59.39621 179.61501 59.091797 179.20312 z M 60.28125 180.7168 C 60.573763 181.06878 60.874482 181.41546 61.181641 181.75586 C 60.873804 181.41618 60.574968 181.06912 60.28125 180.7168 z M 61.566406 182.17188 C 61.82098 182.4447 62.079691 182.71353 62.34375 182.97852 C 62.079256 182.7145 61.821853 182.44435 61.566406 182.17188 z M 63.060547 183.67383 C 63.225939 183.83045 63.393686 183.98501 63.5625 184.13867 C 63.393313 183.98557 63.226501 183.83009 63.060547 183.67383 z M 64.601562 185.04688 C 64.683983 185.11617 64.766452 185.18527 64.849609 185.25391 C 64.766259 185.18554 64.684224 185.11595 64.601562 185.04688 z M 87.996094 194.4375 C 88.275034 194.46842 88.55841 194.49258 88.839844 194.51953 C 88.55864 194.49212 88.275531 194.46902 87.996094 194.4375 z M 90.101562 194.63477 C 91.548242 194.74131 93.025613 194.79725 94.533203 194.79883 C 94.522224 194.79884 94.510976 194.80078 94.5 194.80078 C 93.014983 194.80078 91.547514 194.74302 90.101562 194.63477 z "
   style="enable-background:new 0 0 200 200;fill:#ffffff;fill-opacity:1;stroke:#fefefe;stroke-opacity:1;stroke-width:3.77952756;stroke-dasharray:none;stroke-linejoin:round;paint-order:normal;stroke-linecap:butt;stroke-miterlimit:5.3" /><g
   id="g10"
   style="enable-background:new 0 0 200 200">&#10;	<g
   id="g2">&#10;		<path
   class="st0"
   d="M78.4,44.3c-3.8,0-29.9,0-29.9,0l-0.2,0V37h30.1V4.7H90v32.3h30.1v7.2h-0.2c-5.6,0-27.3,0-29.8,0v90.3h-0.2    c-2.9,0-11.1,0-11.1,0l-0.3,0V44.3z"
   id="path1" />&#10;		<path
   class="st1"
   d="M89.8,5c0,4.2,0,32.3,0,32.3c1.5,0,30.1,0,30.1,0c0,1.9,0,6.7,0,6.7c-5.9,0-30.1,0-30.1,0    c0,3.9,0,90.3,0,90.3c-2.9,0-11.1,0-11.1,0c0-3.3,0-90.4,0-90.4c-2.6,0-30.1,0-30.1,0c0-2.8,0-6.7,0-6.7c4.3,0,30.1,0,30.1,0    c0-3.2,0-32.3,0-32.3C80.4,5,89.8,5,89.8,5 M90.3,4.5h-0.5H78.6h-0.5V5v31.8H48.5H48v0.5V44v0.5l0.5,0c0,0,25.1,0,29.6,0v89.9v0.5    l0.5,0c0,0,8.2,0,11.1,0h0.5v-0.5V44.6c3.5,0,24.2,0,29.6,0h0.5V44v-6.7v-0.5h-0.5H90.3V5V4.5L90.3,4.5z"
   id="path2" />&#10;	</g>&#10;	<g
   id="g5">&#10;		<g
   id="g4">&#10;			<path
   class="st2"
   d="M64.7,174.1c-25.3,0-42.3-15-42.3-37.3c0-22.6,16.4-40.3,37.4-40.3c1-0.1,2-0.2,3.2-0.2     c10.7,0,24.6,4.4,24.8,4.4l0.2,0.1l0,1.5c0,1.8-0.1,4.9-0.1,6.4v0.6l-0.4-0.4c-7-6.6-14.1-9.1-25.1-9.1     c-20.2,0-27.7,21.7-27.7,35.3c0,12.6,6.2,34.1,29.6,34.1c10.8,0,13-2.3,14.3-3.7v-24.7h0.3c0,0,7.1,0,11.1,0h0.2v24.9l-0.1,0.1     c-0.4,0.3-0.8,0.6-1.2,0.9C85.2,169.5,79.4,174.1,64.7,174.1z"
   id="path3" />&#10;			<path
   class="st1"
   d="M62.9,96.6c10.4,0,24,4.2,24.7,4.4c0,0.7-0.1,5.7-0.1,7.7c-6.6-6.2-13.4-9.2-25.3-9.2     c-20.6,0-27.9,22-27.9,35.6s6.6,34.3,29.8,34.3c10.8,0,13.1-2.3,14.6-3.9c0-0.6,0-22.8,0-24.5c0,0,7.1,0,11.1,0     c0,0,0,20.8,0,24.6c-3.2,2.3-8.6,8.2-25.1,8.2c-23.2,0-42.1-13.3-42.1-37.1s17.3-40,37.1-40C60.8,96.6,61.8,96.6,62.9,96.6      M62.9,96.1L62.9,96.1c-1.1,0-2.2,0.1-3.2,0.2c-10,0-19.3,4-26.3,11.3c-7.3,7.5-11.3,17.9-11.3,29.3c0,11.4,4.3,21.1,12.5,27.8     c7.6,6.3,18.3,9.7,30.1,9.7c14.8,0,20.7-4.6,24.2-7.4c0.4-0.4,0.8-0.7,1.2-0.9l0.2-0.1v-0.3v-24.6v-0.5h-0.5c-4,0-11.1,0-11.1,0     l-0.5,0v0.5v24.4c-1.3,1.4-3.6,3.6-14.1,3.6c-10.2,0-18-4-23.2-11.8c-5.5-8.4-6.1-18.2-6.1-22c0-7.9,2.3-16.3,6.2-22.6     c3.5-5.7,10-12.5,21.3-12.5c10.9,0,17.9,2.5,24.9,9l0.8,0.8v-1.1c0-1.5,0-4.6,0.1-6.4c0-0.6,0-1.1,0-1.3l0-0.4l-0.3-0.1     C87.6,100.5,73.7,96.1,62.9,96.1L62.9,96.1z"
   id="path4" />&#10;		</g>&#10;	</g>&#10;	<g
   id="g6">&#10;		<path
   class="st2"
   d="M94.6,194.8c-25.3,0-42.3-15-42.3-37.3c0-10.9,3.9-21,11.1-28.3c6.5-6.6,14.8-10.4,23-10.4h13.3V85.1h43.7    v4.7h-31v28.6h23.5v5.1h-23.4v35.7h-0.2c-3.9,0-12.4,0-12.4,0l-0.2,0v-35.6c-31,0.1-35.2,16.4-35.2,32.4    c0,12.6,6.2,34.1,29.6,34.1c16.2,0,20-7.4,20-7.5l0.4-0.9l0,1c0.1,2.4,0.1,6.4,0.1,6.4l0,0.2l-0.1,0.1    C107.9,192.8,100.8,194.8,94.6,194.8z"
   id="path5" />&#10;		<path
   class="st1"
   d="M143.1,85.4c0,1.3,0,4.2,0,4.2c-4.4,0-31,0-31,0c0,4.6,0,29.1,0,29.1c4.4,0,23.5,0,23.5,0c0,2,0,4.6,0,4.6    c-5,0-19.6,0-23.4,0c0,7.4,0,35.7,0,35.7c-3.9,0-12.4,0-12.4,0c0-3.2,0-35.6,0-35.6c-33.2,0-35.7,19-35.7,32.7s6.6,34.3,29.8,34.3    c16.6,0,20.3-7.6,20.3-7.6c0.1,2.4,0.1,6.4,0.1,6.4c-6.5,3.6-13.4,5.6-19.8,5.6c-23.2,0-42.1-13.3-42.1-37.1S70.6,119,86.3,119    c6.9,0,13.6,0,13.6,0c0-4.6,0-33.6,0-33.6C106,85.4,143.1,85.4,143.1,85.4 M143.6,84.9h-0.5H99.9h-0.5v0.5v33.1H86.3    c-16.6,0-34.3,15.7-34.3,39c0,11.4,4.3,21.1,12.5,27.8c7.6,6.3,18.3,9.7,30.1,9.7c6.3,0,13.4-2,20-5.6l0.3-0.1l0-0.3    c0,0-0.1-4-0.1-6.4l-0.1-2.1l-0.9,1.9c0,0.1-3.8,7.3-19.8,7.3c-10.2,0-18-4-23.2-11.8c-5.5-8.4-6.1-18.2-6.1-22    c0-15.8,4.1-32,34.7-32.2v35.1v0.5l0.5,0c0,0,8.4,0,12.4,0h0.5v-0.5v-35.2h22.9h0.5v-0.5v-4.6v-0.5h-0.5h-23V90.1h30.5h0.5v-0.5    v-4.2V84.9L143.6,84.9z"
   id="path6" />&#10;	</g>&#10;	<g
   id="g9">&#10;		<g
   id="g8">&#10;			<path
   class="st3"
   d="m 151.7,183.3 0.4,-6.6 0.3,-4.8 c 0,-0.3 -0.1,-0.7 -0.3,-0.9 -0.2,-0.2 -0.4,-0.3 -0.7,-0.3 -0.1,0 -0.2,0 -0.2,0 -2,0.3 -9,1.6 -9,1.6 l -2.5,0.4 1.5,-4.2 c 0.3,-0.8 0.3,-0.8 -0.4,-1.3 l -11.6,-9.4 c 0,0 -0.1,-0.1 -0.2,-0.1 l -0.4,-0.3 c 0,0 2.7,-1.3 2.9,-1.4 0.5,-0.2 0.6,-0.5 0.4,-0.9 l -2.1,-6.6 -0.3,-1 0.7,0.1 c 0.2,0 0.3,0.1 0.5,0.1 l 6.1,1.3 c 0.1,0 0.2,0 0.3,0 0.2,0 0.4,-0.1 0.6,-0.5 0.3,-0.7 0.6,-1.3 0.9,-2.1 l 0.6,-1.5 0.4,0.5 c 0.1,0.1 0.1,0.2 0.2,0.2 l 5,5.4 c 0.2,0.2 0.4,0.3 0.6,0.3 0.3,0 0.4,-0.1 0.5,-0.2 0.1,-0.1 0.1,-0.3 0.1,-0.5 -0.2,-1.1 -0.4,-2.2 -0.6,-3.3 l -1.9,-9.8 c 0,-0.1 0,-0.2 0,-0.3 l -0.1,-0.6 0.6,0.3 c 0.1,0.1 0.2,0.1 0.3,0.2 l 3.6,2.1 c 0.2,0.1 0.4,0.2 0.5,0.2 0.2,0 0.4,-0.1 0.6,-0.5 l 4,-7.8 0.5,-0.9 c 0,0 0.4,0.8 0.5,0.9 l 3.9,7.6 c 0.3,0.6 0.5,0.7 0.7,0.7 0.2,0 0.4,-0.1 0.7,-0.3 l 3.4,-2 c 0.1,0 0.5,-0.2 0.5,-0.2 l 0.5,-0.2 -0.8,4.2 -1.9,9.7 v 0.1 c 0,0 0,0.1 0,0.1 v 0.1 c 0.1,0.2 0.2,0.5 0.3,0.6 0.1,0.1 0.1,0.1 0.2,0.1 0.1,0 0.3,-0.1 0.4,-0.2 0.2,-0.2 0.3,-0.3 0.5,-0.5 l 4.9,-5.3 0.4,-0.5 0.6,1.3 0.3,0.8 c 0.2,0.4 0.4,0.9 0.6,1.3 0.2,0.4 0.4,0.5 0.6,0.5 0.1,0 0.2,0 0.3,0 l 6.5,-1.4 c 0.1,0 0.4,-0.1 0.4,-0.1 l 0.4,-0.1 -0.2,0.7 c -0.1,0.2 -0.1,0.4 -0.2,0.6 l -2,6.3 c -0.2,0.7 -0.1,0.8 0.5,1.1 l 2.8,1.3 -0.4,0.4 c -0.1,0.1 -0.1,0.1 -0.2,0.2 l -11.6,9.4 c -0.6,0.5 -0.6,0.5 -0.3,1.2 l 1.5,4.2 -2.9,-0.5 -2.8,-0.5 c -1.9,-0.3 -3.9,-0.7 -5.8,-1 -0.1,0 -0.2,0 -0.2,0 -0.3,0 -0.6,0.1 -0.7,0.3 -0.2,0.2 -0.3,0.5 -0.3,0.8 0.1,2.7 0.3,5.3 0.4,8 l 0.1,1 c 0,0.5 0.1,1 0.1,1.5 l 0.1,1 h -3.6 z"
   id="path7"
   style="display:inline" />&#10;			&#10;		</g>&#10;	</g>&#10;</g>&#10;</svg>
