<?xml version="1.0" encoding="utf-8"?>
<!-- Generator: Adobe Illustrator 24.0.3, SVG Export Plug-In . SVG Version: 6.00 Build 0)  -->
<svg version="1.1" id="Layer_1" xmlns="http://www.w3.org/2000/svg" xmlns:xlink="http://www.w3.org/1999/xlink" x="0px" y="0px"
	 viewBox="0 0 200 200" style="enable-background:new 0 0 200 200;" xml:space="preserve">
<style type="text/css">
	.st0{fill:#5CBB4E;}
	.st1{fill:#FFFFFF;}
	.st2{fill:#027944;}
	.st3{fill:#F10703;}
</style>
<g>
	<g>
		<path class="st0" d="M78.4,44.3c-3.8,0-29.9,0-29.9,0l-0.2,0V37h30.1V4.7H90v32.3h30.1v7.2h-0.2c-5.6,0-27.3,0-29.8,0v90.3h-0.2
			c-2.9,0-11.1,0-11.1,0l-0.3,0V44.3z"/>
		<path class="st1" d="M89.8,5c0,4.2,0,32.3,0,32.3c1.5,0,30.1,0,30.1,0c0,1.9,0,6.7,0,6.7c-5.9,0-30.1,0-30.1,0
			c0,3.9,0,90.3,0,90.3c-2.9,0-11.1,0-11.1,0c0-3.3,0-90.4,0-90.4c-2.6,0-30.1,0-30.1,0c0-2.8,0-6.7,0-6.7c4.3,0,30.1,0,30.1,0
			c0-3.2,0-32.3,0-32.3C80.4,5,89.8,5,89.8,5 M90.3,4.5h-0.5H78.6h-0.5V5v31.8H48.5H48v0.5V44v0.5l0.5,0c0,0,25.1,0,29.6,0v89.9v0.5
			l0.5,0c0,0,8.2,0,11.1,0h0.5v-0.5V44.6c3.5,0,24.2,0,29.6,0h0.5V44v-6.7v-0.5h-0.5H90.3V5V4.5L90.3,4.5z"/>
	</g>
	<g>
		<g>
			<path class="st2" d="M64.7,174.1c-25.3,0-42.3-15-42.3-37.3c0-22.6,16.4-40.3,37.4-40.3c1-0.1,2-0.2,3.2-0.2
				c10.7,0,24.6,4.4,24.8,4.4l0.2,0.1l0,1.5c0,1.8-0.1,4.9-0.1,6.4v0.6l-0.4-0.4c-7-6.6-14.1-9.1-25.1-9.1
				c-20.2,0-27.7,21.7-27.7,35.3c0,12.6,6.2,34.1,29.6,34.1c10.8,0,13-2.3,14.3-3.7v-24.7h0.3c0,0,7.1,0,11.1,0h0.2v24.9l-0.1,0.1
				c-0.4,0.3-0.8,0.6-1.2,0.9C85.2,169.5,79.4,174.1,64.7,174.1z"/>
			<path class="st1" d="M62.9,96.6c10.4,0,24,4.2,24.7,4.4c0,0.7-0.1,5.7-0.1,7.7c-6.6-6.2-13.4-9.2-25.3-9.2
				c-20.6,0-27.9,22-27.9,35.6s6.6,34.3,29.8,34.3c10.8,0,13.1-2.3,14.6-3.9c0-0.6,0-22.8,0-24.5c0,0,7.1,0,11.1,0
				c0,0,0,20.8,0,24.6c-3.2,2.3-8.6,8.2-25.1,8.2c-23.2,0-42.1-13.3-42.1-37.1s17.3-40,37.1-40C60.8,96.6,61.8,96.6,62.9,96.6
				 M62.9,96.1L62.9,96.1c-1.1,0-2.2,0.1-3.2,0.2c-10,0-19.3,4-26.3,11.3c-7.3,7.5-11.3,17.9-11.3,29.3c0,11.4,4.3,21.1,12.5,27.8
				c7.6,6.3,18.3,9.7,30.1,9.7c14.8,0,20.7-4.6,24.2-7.4c0.4-0.4,0.8-0.7,1.2-0.9l0.2-0.1v-0.3v-24.6v-0.5h-0.5c-4,0-11.1,0-11.1,0
				l-0.5,0v0.5v24.4c-1.3,1.4-3.6,3.6-14.1,3.6c-10.2,0-18-4-23.2-11.8c-5.5-8.4-6.1-18.2-6.1-22c0-7.9,2.3-16.3,6.2-22.6
				c3.5-5.7,10-12.5,21.3-12.5c10.9,0,17.9,2.5,24.9,9l0.8,0.8v-1.1c0-1.5,0-4.6,0.1-6.4c0-0.6,0-1.1,0-1.3l0-0.4l-0.3-0.1
				C87.6,100.5,73.7,96.1,62.9,96.1L62.9,96.1z"/>
		</g>
	</g>
	<g>
		<path class="st2" d="M94.6,194.8c-25.3,0-42.3-15-42.3-37.3c0-10.9,3.9-21,11.1-28.3c6.5-6.6,14.8-10.4,23-10.4h13.3V85.1h43.7
			v4.7h-31v28.6h23.5v5.1h-23.4v35.7h-0.2c-3.9,0-12.4,0-12.4,0l-0.2,0v-35.6c-31,0.1-35.2,16.4-35.2,32.4
			c0,12.6,6.2,34.1,29.6,34.1c16.2,0,20-7.4,20-7.5l0.4-0.9l0,1c0.1,2.4,0.1,6.4,0.1,6.4l0,0.2l-0.1,0.1
			C107.9,192.8,100.8,194.8,94.6,194.8z"/>
		<path class="st1" d="M143.1,85.4c0,1.3,0,4.2,0,4.2c-4.4,0-31,0-31,0c0,4.6,0,29.1,0,29.1c4.4,0,23.5,0,23.5,0c0,2,0,4.6,0,4.6
			c-5,0-19.6,0-23.4,0c0,7.4,0,35.7,0,35.7c-3.9,0-12.4,0-12.4,0c0-3.2,0-35.6,0-35.6c-33.2,0-35.7,19-35.7,32.7s6.6,34.3,29.8,34.3
			c16.6,0,20.3-7.6,20.3-7.6c0.1,2.4,0.1,6.4,0.1,6.4c-6.5,3.6-13.4,5.6-19.8,5.6c-23.2,0-42.1-13.3-42.1-37.1S70.6,119,86.3,119
			c6.9,0,13.6,0,13.6,0c0-4.6,0-33.6,0-33.6C106,85.4,143.1,85.4,143.1,85.4 M143.6,84.9h-0.5H99.9h-0.5v0.5v33.1H86.3
			c-16.6,0-34.3,15.7-34.3,39c0,11.4,4.3,21.1,12.5,27.8c7.6,6.3,18.3,9.7,30.1,9.7c6.3,0,13.4-2,20-5.6l0.3-0.1l0-0.3
			c0,0-0.1-4-0.1-6.4l-0.1-2.1l-0.9,1.9c0,0.1-3.8,7.3-19.8,7.3c-10.2,0-18-4-23.2-11.8c-5.5-8.4-6.1-18.2-6.1-22
			c0-15.8,4.1-32,34.7-32.2v35.1v0.5l0.5,0c0,0,8.4,0,12.4,0h0.5v-0.5v-35.2h22.9h0.5v-0.5v-4.6v-0.5h-0.5h-23V90.1h30.5h0.5v-0.5
			v-4.2V84.9L143.6,84.9z"/>
	</g>
	<g>
		<g>
			<path class="st3" d="M151.7,183.3l0.4-6.6l0.3-4.8c0-0.3-0.1-0.7-0.3-0.9c-0.2-0.2-0.4-0.3-0.7-0.3c-0.1,0-0.2,0-0.2,0
				c-2,0.3-9,1.6-9,1.6l-2.5,0.4l1.5-4.2c0.3-0.8,0.3-0.8-0.4-1.3l-11.6-9.4c0,0-0.1-0.1-0.2-0.1l-0.4-0.3c0,0,2.7-1.3,2.9-1.4
				c0.5-0.2,0.6-0.5,0.4-0.9l-2.1-6.6l-0.3-1l0.7,0.1c0.2,0,0.3,0.1,0.5,0.1l6.1,1.3c0.1,0,0.2,0,0.3,0c0.2,0,0.4-0.1,0.6-0.5
				c0.3-0.7,0.6-1.3,0.9-2.1l0.6-1.5l0.4,0.5c0.1,0.1,0.1,0.2,0.2,0.2l5,5.4c0.2,0.2,0.4,0.3,0.6,0.3c0.3,0,0.4-0.1,0.5-0.2
				c0.1-0.1,0.1-0.3,0.1-0.5c-0.2-1.1-0.4-2.2-0.6-3.3l-1.9-9.8c0-0.1,0-0.2,0-0.3l-0.1-0.6l0.6,0.3c0.1,0.1,0.2,0.1,0.3,0.2
				l3.6,2.1c0.2,0.1,0.4,0.2,0.5,0.2c0.2,0,0.4-0.1,0.6-0.5l4-7.8l0.5-0.9c0,0,0.4,0.8,0.5,0.9l3.9,7.6c0.3,0.6,0.5,0.7,0.7,0.7
				c0.2,0,0.4-0.1,0.7-0.3l3.4-2c0.1,0,0.5-0.2,0.5-0.2l0.5-0.2l-0.8,4.2l-1.9,9.7l0,0.1c0,0,0,0.1,0,0.1l0,0.1
				c0.1,0.2,0.2,0.5,0.3,0.6c0.1,0.1,0.1,0.1,0.2,0.1c0.1,0,0.3-0.1,0.4-0.2c0.2-0.2,0.3-0.3,0.5-0.5l4.9-5.3l0.4-0.5l0.6,1.3
				l0.3,0.8c0.2,0.4,0.4,0.9,0.6,1.3c0.2,0.4,0.4,0.5,0.6,0.5c0.1,0,0.2,0,0.3,0l6.5-1.4c0.1,0,0.4-0.1,0.4-0.1l0.4-0.1l-0.2,0.7
				c-0.1,0.2-0.1,0.4-0.2,0.6l-2,6.3c-0.2,0.7-0.1,0.8,0.5,1.1l2.8,1.3l-0.4,0.4c-0.1,0.1-0.1,0.1-0.2,0.2l-11.6,9.4
				c-0.6,0.5-0.6,0.5-0.3,1.2l1.5,4.2l-2.9-0.5l-2.8-0.5c-1.9-0.3-3.9-0.7-5.8-1c-0.1,0-0.2,0-0.2,0c-0.3,0-0.6,0.1-0.7,0.3
				c-0.2,0.2-0.3,0.5-0.3,0.8c0.1,2.7,0.3,5.3,0.4,8l0.1,1c0,0.5,0.1,1,0.1,1.5l0.1,1H151.7z"/>
			<path class="st1" d="M153.1,130.6c0.1,0.2,0.2,0.3,0.2,0.4c1.3,2.5,2.6,5.1,3.9,7.6c0.3,0.6,0.5,0.8,0.9,0.8
				c0.2,0,0.5-0.1,0.8-0.3c1.1-0.7,2.3-1.3,3.4-2c0.1-0.1,0.2-0.1,0.4-0.2c-0.2,1.3-0.5,2.5-0.7,3.7c-0.6,3.2-1.3,6.4-1.9,9.7
				c0,0.1-0.1,0.3,0,0.4c0.1,0.3,0.2,0.6,0.5,0.8c0.1,0.1,0.3,0.1,0.4,0.1c0.2,0,0.4-0.1,0.5-0.2c0.2-0.2,0.4-0.4,0.6-0.7
				c1.5-1.6,3-3.3,4.6-4.9c0.1-0.1,0.2-0.2,0.4-0.4c0.2,0.4,0.3,0.7,0.4,1c0.3,0.7,0.6,1.4,0.9,2.1c0.2,0.4,0.4,0.6,0.8,0.6
				c0.1,0,0.2,0,0.3,0c2.2-0.5,4.4-0.9,6.5-1.4c0.1,0,0.2,0,0.4-0.1c-0.1,0.3-0.2,0.6-0.3,0.9c-0.7,2.1-1.4,4.2-2,6.3
				c-0.3,0.8-0.1,1.1,0.6,1.4c0.8,0.4,1.6,0.8,2.5,1.1c-0.1,0.1-0.2,0.2-0.3,0.3c-3.9,3.1-7.8,6.3-11.6,9.4
				c-0.6,0.5-0.7,0.7-0.4,1.5c0.5,1.2,0.9,2.5,1.4,3.8c-0.9-0.1-1.7-0.3-2.5-0.4c-2.9-0.5-5.7-1-8.6-1.5c-0.1,0-0.2,0-0.3,0
				c-0.8,0-1.3,0.6-1.3,1.4c0.1,3,0.3,6,0.5,9c0,0.7,0.1,1.5,0.1,2.2c-0.8,0-1.6,0-2.4,0c0.1-2.1,0.2-4.2,0.4-6.3
				c0.1-1.5,0.2-2.9,0.2-4.4c0-0.1,0-0.3,0-0.4c0-0.8-0.5-1.4-1.3-1.4c-0.1,0-0.2,0-0.3,0c-3,0.5-6,1.1-9,1.6
				c-0.7,0.1-1.3,0.2-2,0.3c0.5-1.3,0.9-2.5,1.4-3.8c0.3-0.9,0.3-1-0.5-1.6c-3.9-3.1-7.8-6.3-11.6-9.4c-0.1-0.1-0.1-0.1-0.2-0.2
				c0.6-0.3,1.1-0.5,1.7-0.8c0.3-0.1,0.6-0.3,0.9-0.4c0.6-0.3,0.7-0.6,0.5-1.2c-0.7-2.2-1.4-4.4-2.1-6.6c-0.1-0.2-0.1-0.4-0.2-0.6
				c0.3,0.1,0.5,0.1,0.8,0.1c2,0.4,4.1,0.9,6.1,1.3c0.1,0,0.2,0,0.3,0c0.4,0,0.6-0.2,0.8-0.6c0.4-1,0.9-2,1.3-3.1
				c0.1,0.2,0.2,0.3,0.3,0.4c1.7,1.8,3.3,3.6,5,5.4c0.2,0.2,0.4,0.4,0.7,0.4c0,0,0.1,0,0.1,0c0.5-0.1,0.8-0.5,0.7-1.1
				c-0.2-1.3-0.5-2.6-0.8-4c-0.6-3.1-1.2-6.1-1.8-9.2c0-0.1,0-0.3-0.1-0.4c0.2,0.1,0.3,0.2,0.5,0.2c1.2,0.7,2.4,1.4,3.6,2.1
				c0.3,0.1,0.5,0.2,0.7,0.2c0.3,0,0.6-0.2,0.8-0.7c1.3-2.6,2.6-5.2,4-7.8C152.9,130.9,153,130.8,153.1,130.6 M153.1,129.5l-0.4,0.8
				l-0.1,0.2c-0.1,0.1-0.1,0.2-0.1,0.3l-1.4,2.8l-2.6,5c-0.2,0.4-0.3,0.4-0.4,0.4c-0.1,0-0.2,0-0.4-0.2c-0.7-0.4-1.5-0.8-2.2-1.3
				l-1.4-0.8c-0.1-0.1-0.2-0.1-0.3-0.2l-0.2-0.1l-0.9-0.5l0.1,1l0,0.2c0,0.1,0,0.2,0,0.3l0.9,4.6l0.9,4.5l0.1,0.8
				c0.2,1.1,0.4,2.1,0.6,3.2c0,0.2,0,0.3,0,0.4c0,0.1-0.1,0.1-0.2,0.1c0,0,0,0-0.1,0c-0.1,0-0.2,0-0.4-0.2c-0.9-1-1.8-2-2.7-2.9
				l-2.3-2.5c-0.1-0.1-0.1-0.1-0.2-0.2l-0.1-0.2l-0.5-0.7l-0.3,0.8l-0.4,1c-0.3,0.7-0.6,1.4-0.9,2.1c-0.1,0.3-0.2,0.3-0.4,0.3
				c-0.1,0-0.1,0-0.2,0c-1.2-0.2-2.3-0.5-3.5-0.7l-2.6-0.6c-0.2,0-0.3-0.1-0.5-0.1l-0.3,0l-0.8-0.1l0.2,0.8l0.1,0.2
				c0,0.2,0.1,0.3,0.1,0.4l0.7,2.2c0.5,1.5,1,2.9,1.4,4.4c0.1,0.4,0.1,0.5-0.3,0.6c-0.2,0.1-0.4,0.2-0.6,0.3l-0.3,0.1l-1.2,0.5
				l-0.5,0.2l-0.7,0.3l0.6,0.5l0.1,0.1c0.1,0.1,0.1,0.1,0.2,0.1c3.9,3.1,7.8,6.3,11.6,9.4c0.5,0.4,0.5,0.4,0.3,1l-0.9,2.6l-0.4,1.2
				l-0.3,0.8l0.8-0.1l0.7-0.1c0.5-0.1,0.9-0.2,1.4-0.2l3-0.5c2-0.4,4-0.7,6.1-1.1c0.1,0,0.1,0,0.2,0c0.2,0,0.4,0.1,0.5,0.2
				c0.2,0.2,0.2,0.4,0.2,0.7c0,0.1,0,0.2,0,0.2l0,0.1l-0.1,1.4c-0.1,1-0.1,2-0.2,3c-0.1,1.5-0.2,3-0.2,4.5l-0.1,1.9l0,0.5h0.5h2.4
				h0.5l0-0.5l0-0.7c0-0.5-0.1-1-0.1-1.5l-0.1-1.5c-0.1-2.5-0.3-5-0.4-7.5c0-0.3,0.1-0.5,0.2-0.7c0.1-0.1,0.3-0.2,0.6-0.2
				c0.1,0,0.1,0,0.2,0c1.9,0.3,3.8,0.7,5.8,1l2.9,0.5c0.5,0.1,1.1,0.2,1.7,0.3l0.8,0.1l0.8,0.1l-0.3-0.8l-0.4-1.2l-1-2.6
				c-0.2-0.6-0.2-0.6,0.3-0.9l11.6-9.4c0.1-0.1,0.1-0.1,0.2-0.2l0.1-0.1l0.5-0.5l-0.7-0.3l-0.8-0.4c-0.6-0.3-1.1-0.5-1.7-0.8
				c-0.5-0.2-0.5-0.3-0.4-0.8l0.9-2.8l1.1-3.5c0.1-0.2,0.1-0.4,0.2-0.6l0.1-0.3l0.2-0.8l-0.8,0.1l-0.1,0c-0.1,0-0.2,0-0.2,0
				l-2.4,0.5c-1.4,0.3-2.7,0.6-4.1,0.9c-0.1,0-0.1,0-0.2,0c-0.1,0-0.2,0-0.3-0.3c-0.2-0.4-0.4-0.9-0.6-1.3l-0.3-0.8
				c-0.1-0.2-0.2-0.4-0.3-0.7l-0.1-0.3l-0.3-0.7l-0.5,0.5l-0.1,0.1c-0.1,0.1-0.2,0.2-0.2,0.2l-1.6,1.7l-2.9,3.2l-0.1,0.1
				c-0.2,0.2-0.3,0.3-0.5,0.5c-0.1,0.1-0.2,0.1-0.2,0.1c0,0,0,0-0.1,0c-0.1-0.1-0.2-0.3-0.3-0.5l0,0c0,0,0,0,0,0c0,0,0-0.1,0-0.1
				l0.9-4.4l1-5.3c0.2-0.8,0.3-1.7,0.5-2.5l0.2-1.2l0.2-1l-0.9,0.5l-0.2,0.1c-0.1,0.1-0.2,0.1-0.3,0.2l-2.3,1.3l-1.2,0.7
				c-0.3,0.2-0.5,0.2-0.6,0.2c-0.1,0-0.3-0.2-0.4-0.6l-3.9-7.6c0-0.1-0.1-0.2-0.2-0.3l-0.1-0.2L153.1,129.5L153.1,129.5z"/>
		</g>
	</g>
</g>
</svg>
